<svg width="16" height="13" viewBox="0 0 16 13" fill="none" xmlns="http://www.w3.org/2000/svg">
<path opacity="0.5" d="M12 0H11.9966L3.99657 0.00591004C1.792 0.00591004 0 1.86272 0 4.14265V8.86799C0 9.97309 0.416 11.012 1.17143 11.7921C1.92571 12.571 2.92914 13 3.99771 13H12.0023C14.2069 13 16 11.1432 16 8.86326V4.13556C16 3.02927 15.584 1.99036 14.8274 1.20911C14.072 0.429039 13.0686 0 12 0ZM11.9966 1.18193H12C12.7086 1.18193 13.3783 1.44786 13.9017 1.93245L9.54286 6.44149C8.72343 7.28893 7.296 7.28893 6.47657 6.44149L2.112 1.92772C2.61486 1.46913 3.27429 1.18902 3.99657 1.18902L11.9966 1.18193ZM14.8571 8.86444C14.8571 10.4931 13.576 11.8181 12.0023 11.8193H3.99771C3.23543 11.8193 2.51771 11.5131 1.97829 10.9565C1.43886 10.3998 1.14286 9.65751 1.14286 8.86799V4.14265C1.14286 3.69115 1.24114 3.2633 1.41714 2.88035L5.66857 7.27712C6.29486 7.92363 7.12571 8.28057 8.01029 8.28057C8.89486 8.28057 9.72571 7.92481 10.3509 7.27712L14.592 2.89099C14.7657 3.2763 14.8571 3.69943 14.8571 4.13792V8.86563V8.86444Z" fill="#00FFFB"/>
</svg>
