<svg width="17" height="13" viewBox="0 0 17 13" fill="none" xmlns="http://www.w3.org/2000/svg">
<path d="M15.1519 2.95654H1.8476C1.6436 2.95654 1.47803 3.12212 1.47803 3.32612V5.54351C1.47803 9.41507 4.62821 12.5653 8.49977 12.5653C12.3713 12.5653 15.5215 9.41507 15.5215 5.54351V3.32612C15.5215 3.12212 15.3559 2.95654 15.1519 2.95654ZM14.7824 5.54351C14.7824 9.0078 11.9641 11.8261 8.49981 11.8261C5.03552 11.8261 2.21718 9.0078 2.21718 5.54351V3.6957H14.7824V5.54351Z" fill="#00FFFB" fill-opacity="0.5"/>
<path d="M8.49991 4.43457C6.66613 4.43457 5.17383 5.92687 5.17383 7.76065C5.17383 9.59444 6.66613 11.0867 8.49991 11.0867C10.3337 11.0867 11.826 9.59444 11.826 7.76065C11.826 5.92687 10.3337 4.43457 8.49991 4.43457ZM8.49991 10.3476C7.0734 10.3476 5.91295 9.1872 5.91295 7.76065C5.91295 6.33411 7.07337 5.17369 8.49991 5.17369C9.92646 5.17369 11.0869 6.33415 11.0869 7.76065C11.0869 9.18716 9.92646 10.3476 8.49991 10.3476Z" fill="#00FFFB" fill-opacity="0.5"/>
<path d="M8.50016 5.91309C7.48092 5.91309 6.65234 6.74239 6.65234 7.7609C6.65234 8.77941 7.48092 9.60871 8.50016 9.60871C9.51939 9.60871 10.348 8.77941 10.348 7.7609C10.348 6.74239 9.51943 5.91309 8.50016 5.91309ZM8.50016 8.86959C7.88888 8.86959 7.39146 8.37217 7.39146 7.7609C7.39146 7.14963 7.88888 6.6522 8.50016 6.6522C9.11143 6.6522 9.60885 7.14963 9.60885 7.7609C9.60885 8.37217 9.11143 8.86959 8.50016 8.86959Z" fill="#00FFFB" fill-opacity="0.5"/>
<path d="M16.6304 0H0.369577C0.165577 0 0 0.165577 0 0.369576V2.58697C0 3.19824 0.497423 3.69566 1.10869 3.69566H15.8913C16.5026 3.69566 17 3.19824 17 2.58697V0.369576C17 0.165577 16.8344 0 16.6304 0ZM16.2608 2.58697C16.2608 2.79097 16.0945 2.95654 15.8913 2.95654H1.10869C0.905423 2.95654 0.739118 2.79097 0.739118 2.58697V0.739118H16.2608V2.58697Z" fill="#00FFFB" fill-opacity="0.5"/>
<path d="M12.935 5.91298C13.1391 5.91298 13.3046 5.74752 13.3046 5.5434C13.3046 5.33929 13.1391 5.17383 12.935 5.17383C12.7309 5.17383 12.5654 5.33929 12.5654 5.5434C12.5654 5.74752 12.7309 5.91298 12.935 5.91298Z" fill="#00FFFB" fill-opacity="0.5"/>
</svg>
