<svg width="18" height="19" viewBox="0 0 18 19" fill="none" xmlns="http://www.w3.org/2000/svg">
<path d="M7.80685 6.27842C7.80685 6.3699 7.7742 6.44842 7.70903 6.51359C7.64373 6.57876 7.56382 6.61141 7.46959 6.61141C7.37521 6.61141 7.29531 6.57876 7.23014 6.51359C7.16498 6.44842 7.13232 6.36852 7.13232 6.27414V3.8841C7.13232 3.79538 7.16635 3.71547 7.23427 3.6448C7.30233 3.57398 7.3821 3.53857 7.47372 3.53857C7.56534 3.53857 7.64373 3.5726 7.70903 3.64052C7.7742 3.70858 7.80685 3.78987 7.80685 3.8841V6.27842Z" fill="#00FFFB" fill-opacity="0.5"/>
<path d="M9.03097 5.56264V6.24129C9.03097 6.33291 8.99763 6.41199 8.93095 6.47867C8.86441 6.54535 8.78532 6.57855 8.69371 6.57855C8.60209 6.57855 8.52301 6.54535 8.45633 6.47867C8.38965 6.41199 8.35645 6.33015 8.35645 6.23303V3.89299C8.35645 3.79297 8.39034 3.70907 8.4584 3.64101C8.52632 3.57309 8.60898 3.53906 8.70611 3.53906H9.49718C9.81075 3.53906 10.0662 3.63344 10.2633 3.82218C10.4603 4.01093 10.559 4.25671 10.559 4.55912C10.559 4.8589 10.4658 5.10124 10.28 5.28572C10.094 5.47033 9.84698 5.56264 9.53879 5.56264H9.03097ZM9.03097 4.14277V4.97132H9.45971C9.568 4.97132 9.66237 4.9311 9.74283 4.85064C9.82343 4.77004 9.86365 4.67429 9.86365 4.56325C9.86365 4.44669 9.82549 4.3475 9.74917 4.26553C9.6727 4.18369 9.57778 4.14277 9.46384 4.14277H9.03097Z" fill="#00FFFB" fill-opacity="0.5"/>
<path d="M15.4204 12.6585C15.3051 12.5014 15.0842 12.4675 14.927 12.5829C14.77 12.6982 14.7361 12.9192 14.8515 13.0762C15.3621 13.7715 15.7483 14.5341 16.0027 15.3401C15.2472 14.5648 14.1262 13.9196 12.7548 13.4814C12.7184 13.3676 12.6809 13.2546 12.6415 13.1436C12.2138 11.9414 11.6255 10.9545 10.9295 10.2645C10.9329 10.2602 10.9365 10.2558 10.9399 10.2515C11.6977 10.4959 12.4117 10.8536 13.0652 11.3176C13.1272 11.3617 13.1985 11.3827 13.2692 11.3827C13.3797 11.3827 13.4884 11.3311 13.5573 11.2342C13.6701 11.0752 13.6328 10.8549 13.4738 10.7421C12.8333 10.2873 12.1395 9.92581 11.4055 9.66391C12.5665 8.15229 13.5325 6.50704 13.5325 4.99762C13.5325 2.24194 11.2907 0 8.53516 0C5.77961 0 3.53781 2.24194 3.53781 4.99762C3.53781 6.07141 4.02896 7.31341 5.03923 8.79458C5.23914 9.08762 5.4513 9.37776 5.66967 9.66295C4.12567 10.215 2.74632 11.2198 1.74583 12.5309C0.60371 14.0277 0 15.8169 0 17.7049C0 17.8998 0.158023 18.0579 0.35283 18.0579H16.7173C16.9123 18.0579 17.0703 17.8998 17.0703 17.7049C17.0703 15.8735 16.4998 14.1285 15.4204 12.6585ZM11.928 13.2499C11.3805 13.1173 10.8009 13.0159 10.1958 12.9492C10.1274 12.5184 9.89206 12.1319 9.5486 11.8713C9.84852 11.5339 10.1621 11.178 10.4761 10.8085C11.0639 11.4071 11.5581 12.2503 11.928 13.2499ZM4.24361 4.99762C4.24361 2.63114 6.16881 0.705798 8.53516 0.705798C10.9015 0.705798 12.8267 2.63114 12.8267 4.99762C12.8267 7.13017 10.3887 9.8674 8.77543 11.6785C8.69318 11.7708 8.61313 11.8607 8.53529 11.9484C8.46007 11.8637 8.38278 11.7769 8.30356 11.6879C6.68683 9.87139 4.24361 7.12632 4.24361 4.99762ZM7.52227 11.8714C7.17908 12.1319 6.94391 12.5182 6.87544 12.9492C6.2698 13.0157 5.68992 13.1173 5.14201 13.2501C5.51233 12.2494 6.00693 11.4057 6.59549 10.807C6.91263 11.1813 7.22647 11.5381 7.52227 11.8714ZM3.69321 17.3521H0.735281C0.94111 16.1182 2.21397 15.0066 4.08241 14.3119C3.84972 15.2688 3.71732 16.2978 3.69321 17.3521ZM1.07957 15.3277C1.83992 12.9634 3.70368 11.0333 6.13423 10.2509C6.13726 10.2547 6.14015 10.2583 6.14319 10.262C5.44607 10.9521 4.8571 11.9396 4.42891 13.1428C4.38937 13.2541 4.35176 13.3673 4.31525 13.4815C2.95132 13.9174 1.83483 14.5579 1.07957 15.3277ZM8.18219 17.3521H4.39887C4.42725 16.1821 4.59671 15.0576 4.88176 14.0507C5.5122 13.8714 6.19402 13.7364 6.91318 13.6548C7.07727 14.2598 7.56787 14.7245 8.18233 14.855V17.3521H8.18219ZM8.63463 14.181C8.58324 14.1862 8.53157 14.1872 8.48019 14.1843C7.96823 14.1556 7.56043 13.7302 7.56043 13.2112C7.56043 12.8821 7.72782 12.5791 7.99303 12.401C8.08878 12.5087 8.18136 12.6134 8.26995 12.7143C8.3369 12.7906 8.43362 12.8344 8.53516 12.8344C8.63669 12.8344 8.73341 12.7906 8.80036 12.7143C8.88895 12.6133 8.98181 12.5085 9.07756 12.4007C9.34318 12.579 9.51071 12.8821 9.51071 13.2112C9.51071 13.3414 9.48384 13.4724 9.43314 13.5923C9.29703 13.9112 8.99545 14.1435 8.63669 14.1807C8.636 14.1807 8.63532 14.1809 8.63463 14.181C8.63532 14.1809 8.6203 14.1824 8.63463 14.181C8.63532 14.1809 8.58324 14.1862 8.63463 14.181ZM8.88812 17.3521V14.855C9.48274 14.7286 9.96136 14.2893 10.14 13.7127C10.1416 13.708 10.1428 13.7032 10.1442 13.6985C10.1486 13.6841 10.153 13.6696 10.157 13.6548C10.8763 13.7364 11.5581 13.8713 12.1884 14.0505C12.4736 15.0576 12.6431 16.1822 12.6714 17.3521H8.88812ZM13.3771 17.3521C13.353 16.2978 13.2205 15.2688 12.9878 14.3117C14.8562 15.0066 16.1292 16.118 16.335 17.3521H13.3771Z" fill="#00FFFB" fill-opacity="0.5"/>
<path d="M8.53482 8.52766C6.62091 8.52766 5.06396 6.97058 5.06396 5.05667C5.06396 3.14221 6.62091 1.58472 8.53482 1.58472C10.4491 1.58472 12.0066 3.14221 12.0066 5.05667C12.0066 6.97058 10.4491 8.52766 8.53482 8.52766ZM8.53482 2.29038C7.01011 2.29038 5.76976 3.53128 5.76976 5.05667C5.76976 6.58138 7.01011 7.82186 8.53482 7.82186C10.0601 7.82186 11.3008 6.58138 11.3008 5.05667C11.3008 3.53128 10.0601 2.29038 8.53482 2.29038Z" fill="#00FFFB" fill-opacity="0.5"/>
<path d="M14.3205 12.2725C14.217 12.2725 14.1144 12.2271 14.0446 12.1399L14.0407 12.135C13.919 11.9827 13.9437 11.7606 14.0958 11.6389C14.248 11.5171 14.4701 11.5419 14.5919 11.694L14.5959 11.6991C14.7175 11.8512 14.6929 12.0732 14.5408 12.195C14.4757 12.2471 14.3978 12.2725 14.3205 12.2725Z" fill="#00FFFB" fill-opacity="0.5"/>
</svg>
