<svg width="15" height="16" viewBox="0 0 15 16" fill="none" xmlns="http://www.w3.org/2000/svg">
<path d="M9.70238 10.5714C11.405 7.89975 11.1909 8.23306 11.24 8.16341C11.8599 7.28909 12.1875 6.26006 12.1875 5.1875C12.1875 2.34313 9.87934 0 7.03125 0C4.19244 0 1.875 2.3385 1.875 5.1875C1.875 6.25938 2.2095 7.31534 2.84969 8.20144L4.36006 10.5714C2.74522 10.8196 0 11.5591 0 13.1875C0 13.7811 0.387437 14.627 2.23319 15.2862C3.522 15.7465 5.22597 16 7.03125 16C10.407 16 14.0625 15.0478 14.0625 13.1875C14.0625 11.5588 11.3205 10.8201 9.70238 10.5714ZM3.63278 7.68578C3.62762 7.67772 3.62225 7.66984 3.61662 7.66209C3.08391 6.92922 2.8125 6.06066 2.8125 5.1875C2.8125 2.84319 4.70019 0.9375 7.03125 0.9375C9.35747 0.9375 11.25 2.84403 11.25 5.1875C11.25 6.06206 10.9837 6.90116 10.4798 7.61472C10.4347 7.67428 10.6702 7.30828 7.03125 13.0184L3.63278 7.68578ZM7.03125 15.0625C3.34394 15.0625 0.9375 13.9787 0.9375 13.1875C0.9375 12.6558 2.174 11.7814 4.914 11.4406L6.63594 14.1426C6.722 14.2776 6.87106 14.3594 7.03122 14.3594C7.19137 14.3594 7.34047 14.2776 7.4265 14.1426L9.14841 11.4406C11.8885 11.7814 13.125 12.6558 13.125 13.1875C13.125 13.9719 10.7402 15.0625 7.03125 15.0625Z" fill="#00FFFB" fill-opacity="0.5"/>
<path d="M7.03125 2.84375C5.73891 2.84375 4.6875 3.89516 4.6875 5.1875C4.6875 6.47984 5.73891 7.53125 7.03125 7.53125C8.32359 7.53125 9.375 6.47984 9.375 5.1875C9.375 3.89516 8.32359 2.84375 7.03125 2.84375ZM7.03125 6.59375C6.25584 6.59375 5.625 5.96291 5.625 5.1875C5.625 4.41209 6.25584 3.78125 7.03125 3.78125C7.80666 3.78125 8.4375 4.41209 8.4375 5.1875C8.4375 5.96291 7.80666 6.59375 7.03125 6.59375Z" fill="#00FFFB" fill-opacity="0.5"/>
</svg>
