<svg width="15" height="19" viewBox="0 0 15 19" fill="none" xmlns="http://www.w3.org/2000/svg">
<path d="M7.125 0C4.15625 0 1.78125 2.375 1.78125 5.34375V7.71875C0.771875 7.71875 0 8.49063 0 9.5V17.2188C0 18.2281 0.771875 19 1.78125 19H12.4688C13.4781 19 14.25 18.2281 14.25 17.2188V9.5C14.25 8.49063 13.4781 7.71875 12.4688 7.71875V5.34375C12.4688 2.375 10.0938 0 7.125 0ZM13.0625 9.5V17.2188C13.0625 17.575 12.825 17.8125 12.4688 17.8125H1.78125C1.425 17.8125 1.1875 17.575 1.1875 17.2188V9.5C1.1875 9.14375 1.425 8.90625 1.78125 8.90625H2.375H11.875H12.4688C12.825 8.90625 13.0625 9.14375 13.0625 9.5ZM2.96875 7.71875V5.34375C2.96875 3.02813 4.80937 1.1875 7.125 1.1875C9.44063 1.1875 11.2812 3.02813 11.2812 5.34375V7.71875H2.96875Z" fill="#00FFFB" fill-opacity="0.5"/>
<path d="M7.125 10.6875C6.11562 10.6875 5.34375 11.4594 5.34375 12.4688C5.34375 13.2406 5.81875 13.8937 6.53125 14.1312V15.4375C6.53125 15.7938 6.76875 16.0313 7.125 16.0313C7.48125 16.0313 7.71875 15.7938 7.71875 15.4375V14.1312C8.43125 13.8937 8.90625 13.2406 8.90625 12.4688C8.90625 11.4594 8.13438 10.6875 7.125 10.6875ZM7.125 13.0625C6.76875 13.0625 6.53125 12.825 6.53125 12.4688C6.53125 12.1125 6.76875 11.875 7.125 11.875C7.48125 11.875 7.71875 12.1125 7.71875 12.4688C7.71875 12.825 7.48125 13.0625 7.125 13.0625Z" fill="#00FFFB" fill-opacity="0.5"/>
</svg>
