<svg width="249" height="147" viewBox="0 0 249 147" fill="none" xmlns="http://www.w3.org/2000/svg">
<g filter="url(#filter0_d_1_275)">
<path d="M160.868 45.447L160.855 41.8951C160.855 41.882 160.855 41.8688 160.855 41.8557L160.848 39.5184H160.809L160.802 38.0149L160.619 37.7391L154.04 33.8983C154.04 33.8983 154.04 33.8983 154.033 33.8983C153.771 33.7342 153.515 33.5766 153.252 33.419C153.259 33.4322 148.177 30.8322 148.177 30.8322L146.733 30.2479C139.964 27.5101 132.833 26.0854 125.546 26.0066C125.408 26.0066 125.27 26.0066 125.132 26.0066C125.014 26.0066 124.896 26 124.778 26C124.521 26 124.272 26 124.029 26.0066C124.009 26.0066 123.99 26.0066 123.97 26.0066C123.95 26.0066 123.937 26.0066 123.917 26.0066C121.377 26.0328 119.624 26.1707 118.757 26.2626C118.737 26.2626 115.231 26.7485 113.505 27.0833L113.491 27.0439L112.592 27.2671C106.532 28.5343 100.689 30.7731 95.3115 33.8983L92.2454 35.6841C92.2323 35.6907 92.2192 35.6973 92.2126 35.7038L90.1839 36.879L88.9298 37.7391L88.7132 38.0214L88.6738 45.6374C88.6607 47.8237 88.7854 50.0035 89.0218 52.1701L88.9955 52.1964L89.1268 53.1352C90.0919 60.7775 92.5737 68.2031 96.4605 74.9327C97.964 77.5392 99.1326 79.2331 99.6907 80.0144C99.7104 80.0407 99.7432 80.0341 99.7958 80.0144C100.82 81.4326 101.903 82.8047 103.046 84.1244L102.987 84.1835L104.825 86.0744C104.864 86.1138 104.904 86.1597 104.943 86.1991L104.976 86.2385C105.002 86.2648 105.114 86.3764 105.285 86.5536C109.06 90.4404 113.373 93.8085 118.107 96.5201L121.186 98.2862C121.199 98.2928 121.212 98.2993 121.226 98.3059L123.254 99.468L124.561 100.105H124.968L131.12 96.5923C131.533 96.3756 131.94 96.159 132.341 95.9358C132.321 95.9292 137.121 92.8368 137.121 92.8368L138.348 91.8783C142.767 88.4248 146.621 84.4067 149.858 79.8831C149.943 79.7649 150.022 79.6467 150.107 79.5286C150.284 79.2791 150.462 79.023 150.632 78.767C151.486 77.5195 152.3 76.2458 153.062 74.9261C154.565 72.3196 155.452 70.4616 155.845 69.5818C155.859 69.5556 157.802 64.638 157.802 64.638L158.59 61.9002C158.623 61.7886 158.912 60.7775 159.273 59.1689C160.336 54.6913 160.881 50.0823 160.868 45.447ZM148.039 71.2035C144.842 76.8892 140.587 81.8987 135.545 86.0021C133.943 85.5097 132.413 84.9779 131.034 84.4396C133.976 82.2532 136.635 79.7452 138.972 76.9877C140.653 75.0246 142.183 72.9171 143.535 70.6914L143.548 70.698C145.938 66.5617 148.925 64.9269 151.25 64.3163C151.053 64.835 150.849 65.3536 150.639 65.8657C149.877 67.691 149.011 69.4768 148.039 71.2035ZM124.758 92.9484L121.35 91.0182C121.16 90.9066 120.97 90.8015 120.773 90.6899C117.293 88.6809 114.076 86.2845 111.18 83.5663C111.758 82.4699 112.342 81.0452 112.71 79.3513C112.763 79.4104 112.822 79.4629 112.881 79.5154C115.908 82.6078 119.374 85.3193 123.215 87.5253C123.215 87.5253 123.215 87.5253 123.221 87.5253C123.228 87.5319 123.241 87.5385 123.248 87.545L124.771 88.4183L124.817 88.392C126.117 89.0485 127.64 89.7051 129.321 90.3419C129.124 90.4601 128.933 90.5783 128.743 90.6899C128.566 90.795 128.389 90.8934 128.211 90.9919L124.758 92.9484ZM100.951 70.2449C100.918 70.1858 100.886 70.1202 100.853 70.0611C100.735 69.8444 100.623 69.6278 100.511 69.4045C98.1216 64.6511 96.4867 59.5563 95.6464 54.3039C96.8938 53.1484 98.1347 52.0716 99.3099 51.1262C99.9927 57.2978 101.89 63.3118 104.897 68.8071L104.884 68.8137C107.254 72.9237 107.195 76.3049 106.571 78.6291C104.667 76.3115 102.96 73.8231 101.477 71.1969C101.293 70.8884 101.122 70.5666 100.951 70.2449ZM94.9832 46.0707C94.9832 45.8672 94.9832 45.6571 94.9832 45.4602L95.0226 41.4158L98.3776 39.4396C98.568 39.328 98.7584 39.2164 98.9488 39.1047C102.422 37.1023 106.092 35.5134 109.894 34.3645C110.557 35.4215 111.495 36.6558 112.789 37.8376C108.541 38.9078 104.418 40.5689 100.531 42.8208C100.531 42.8208 100.531 42.8208 100.525 42.8208C100.518 42.8274 100.505 42.834 100.498 42.834L98.9816 43.7137V43.7663C97.7473 44.5738 96.4014 45.5849 94.9898 46.7339C94.9964 46.5172 94.9832 46.294 94.9832 46.0707ZM124.771 32.1322C124.994 32.1322 125.217 32.1322 125.434 32.1387C125.598 32.1387 125.762 32.1453 125.92 32.1453C131.77 32.2963 137.554 33.4453 143.016 35.52C143.397 37.1811 143.712 38.7962 143.936 40.2865C139.97 38.5729 135.827 37.424 131.612 36.8331C129.708 36.5573 127.785 36.3932 125.848 36.3472V36.3275C121.042 36.3275 118.133 34.5352 116.439 32.8216C119.19 32.3751 121.974 32.1453 124.771 32.1322ZM154.552 45.4076C154.552 45.6243 154.552 45.8475 154.552 46.0707C154.552 50.0626 154.092 54.0216 153.2 57.869C151.952 57.9149 150.416 58.1184 148.748 58.6503C149.365 56.4442 149.818 54.1923 150.107 51.914C150.14 51.658 150.166 51.4019 150.199 51.1459C150.219 50.9489 150.245 50.7585 150.265 50.5616C150.435 48.8939 150.527 47.2131 150.527 45.5127V45.5061C150.527 45.493 150.527 45.4864 150.527 45.4733L150.521 43.7203C150.521 43.7203 150.193 40.536 149.897 38.7305C150.114 38.8553 150.337 38.9734 150.56 39.0982C150.737 39.2032 150.915 39.3083 151.092 39.4068L154.526 41.4289L154.552 45.4076ZM124.758 81.0255C118.35 77.0337 113.248 71.4202 109.848 64.8941C107.123 59.5235 105.547 53.5554 105.35 47.3773C111.456 44.1208 118.199 42.4925 124.942 42.4925C131.579 42.5516 138.197 44.1864 144.198 47.3904C144.028 52.6756 142.852 57.8033 140.804 62.537C137.462 70.0677 131.921 76.5609 124.758 81.0255Z" fill="#00FFFB"/>
</g>
<g filter="url(#filter1_d_1_275)">
<path d="M131.133 58.2038C131.133 61.7164 128.29 64.5658 124.771 64.5658C121.259 64.5658 118.409 61.7164 118.409 58.2038C118.409 54.6913 121.259 51.8419 124.771 51.8419C125.165 51.8419 125.559 51.8747 125.933 51.9535C125.493 52.5181 125.237 53.2337 125.237 54.0019C125.237 55.8599 126.747 57.3766 128.612 57.3766C129.492 57.3766 130.293 57.0417 130.897 56.4837C131.048 57.0286 131.133 57.6064 131.133 58.2038Z" fill="#00FFFB"/>
</g>
<g filter="url(#filter2_d_1_275)">
<path d="M124.771 72.359C116.965 72.359 110.616 66.0102 110.616 58.2038C110.616 50.3974 116.965 44.0486 124.771 44.0486C132.577 44.0486 138.926 50.3974 138.926 58.2038C138.926 66.0102 132.577 72.359 124.771 72.359ZM124.771 49.5767C120.011 49.5767 116.137 53.4504 116.137 58.2104C116.137 62.9704 120.011 66.8374 124.771 66.8374C129.531 66.8374 133.405 62.9638 133.405 58.2104C133.405 53.4438 129.531 49.5767 124.771 49.5767Z" fill="#00FFFB"/>
</g>
<path d="M4.74379 146.917C3.87409 146.917 3.07028 146.705 2.33236 146.28C1.62079 145.856 1.05417 145.285 0.632505 144.569C0.210835 143.825 0 143.016 0 142.14V141.026H3.20206V142.14C3.20206 142.565 3.347 142.936 3.6369 143.255C3.95316 143.547 4.32212 143.693 4.74379 143.693H23.7189C24.1406 143.693 24.4964 143.547 24.7863 143.255C25.1025 142.936 25.2607 142.565 25.2607 142.14V135.731C25.2607 135.307 25.1025 134.948 24.7863 134.656C24.4964 134.364 24.1406 134.218 23.7189 134.218H4.74379C3.87409 134.218 3.07028 134.006 2.33236 133.582C1.62079 133.13 1.05417 132.546 0.632505 131.83C0.210835 131.113 0 130.317 0 129.441V123.032C0 122.157 0.210835 121.36 0.632505 120.644C1.05417 119.901 1.62079 119.317 2.33236 118.892C3.07028 118.468 3.87409 118.255 4.74379 118.255H23.7189C24.5886 118.255 25.3793 118.468 26.0908 118.892C26.8287 119.317 27.4085 119.901 27.8302 120.644C28.2519 121.36 28.4627 122.157 28.4627 123.032V124.147H25.2607V123.032C25.2607 122.608 25.1025 122.249 24.7863 121.958C24.4964 121.639 24.1406 121.48 23.7189 121.48H4.74379C4.32212 121.48 3.95316 121.639 3.6369 121.958C3.347 122.249 3.20206 122.608 3.20206 123.032V129.441C3.20206 129.866 3.347 130.224 3.6369 130.516C3.95316 130.808 4.32212 130.954 4.74379 130.954H23.7189C24.5886 130.954 25.3793 131.18 26.0908 131.631C26.8287 132.056 27.4085 132.626 27.8302 133.343C28.2519 134.059 28.4627 134.855 28.4627 135.731V142.14C28.4627 143.016 28.2519 143.825 27.8302 144.569C27.4085 145.285 26.8287 145.856 26.0908 146.28C25.3793 146.705 24.5886 146.917 23.7189 146.917H4.74379Z" fill="white"/>
<path d="M32.7822 146.917V118.255H58.7544V121.48H35.9842V130.954H54.2873V134.218H35.9842V143.693H58.7544V146.917H32.7822Z" fill="white"/>
<path d="M67.7132 146.917C66.8435 146.917 66.0397 146.705 65.3018 146.28C64.5902 145.856 64.0236 145.285 63.6019 144.569C63.1803 143.825 62.9694 143.016 62.9694 142.14V123.032C62.9694 122.157 63.1803 121.36 63.6019 120.644C64.0236 119.901 64.5902 119.317 65.3018 118.892C66.0397 118.468 66.8435 118.255 67.7132 118.255H91.3531V121.48H67.7132C67.2916 121.48 66.9226 121.639 66.6063 121.958C66.3164 122.249 66.1715 122.608 66.1715 123.032V142.14C66.1715 142.565 66.3164 142.936 66.6063 143.255C66.9226 143.547 67.2916 143.693 67.7132 143.693H91.3531V146.917H67.7132Z" fill="white"/>
<path d="M100.14 146.917C99.2699 146.917 98.4661 146.705 97.7282 146.28C97.0166 145.856 96.45 145.285 96.0283 144.569C95.6067 143.825 95.3958 143.016 95.3958 142.14V118.255H98.5979V142.14C98.5979 142.565 98.7428 142.936 99.0327 143.255C99.349 143.547 99.7179 143.693 100.14 143.693H119.115C119.536 143.693 119.892 143.547 120.182 143.255C120.498 142.936 120.656 142.565 120.656 142.14V118.255H123.859V142.14C123.859 143.016 123.648 143.825 123.226 144.569C122.804 145.285 122.225 145.856 121.487 146.28C120.775 146.705 119.984 146.917 119.115 146.917H100.14Z" fill="white"/>
<path d="M152.247 146.917L142.957 135.771H147.148L156.477 146.877V146.917H152.247ZM128.212 146.917V118.295H151.931C152.801 118.295 153.591 118.521 154.303 118.972C155.041 119.397 155.62 119.967 156.042 120.684C156.464 121.4 156.675 122.196 156.675 123.072V131.472C156.675 132.347 156.464 133.144 156.042 133.86C155.62 134.577 155.041 135.161 154.303 135.612C153.591 136.036 152.801 136.249 151.931 136.249H131.414V146.917H128.212ZM132.956 132.984H151.931C152.353 132.984 152.708 132.838 152.998 132.546C153.314 132.255 153.473 131.896 153.473 131.472V123.072C153.473 122.648 153.314 122.289 152.998 121.997C152.708 121.679 152.353 121.52 151.931 121.52H132.956C132.534 121.52 132.165 121.679 131.849 121.997C131.559 122.289 131.414 122.648 131.414 123.072V131.472C131.414 131.896 131.559 132.255 131.849 132.546C132.165 132.838 132.534 132.984 132.956 132.984Z" fill="white"/>
<path d="M160.912 146.917V118.255H186.885V121.48H164.114V130.954H182.417V134.218H164.114V143.693H186.885V146.917H160.912Z" fill="white"/>
<path d="M203.236 146.917V136.129L190.151 118.255H193.827L204.857 132.268L215.767 118.255H219.523L206.438 136.129V146.917H203.236Z" fill="white"/>
<path d="M223.028 146.917V118.255H249V121.48H226.23V130.954H244.533V134.218H226.23V143.693H249V146.917H223.028Z" fill="white"/>
<defs>
<filter id="filter0_d_1_275" x="58.6729" y="0" width="132.195" height="134.105" filterUnits="userSpaceOnUse" color-interpolation-filters="sRGB">
<feFlood flood-opacity="0" result="BackgroundImageFix"/>
<feColorMatrix in="SourceAlpha" type="matrix" values="0 0 0 0 0 0 0 0 0 0 0 0 0 0 0 0 0 0 127 0" result="hardAlpha"/>
<feOffset dy="4"/>
<feGaussianBlur stdDeviation="15"/>
<feComposite in2="hardAlpha" operator="out"/>
<feColorMatrix type="matrix" values="0 0 0 0 0.00392157 0 0 0 0 0.729412 0 0 0 0 0.796078 0 0 0 0.16 0"/>
<feBlend mode="normal" in2="BackgroundImageFix" result="effect1_dropShadow_1_275"/>
<feBlend mode="normal" in="SourceGraphic" in2="effect1_dropShadow_1_275" result="shape"/>
</filter>
<filter id="filter1_d_1_275" x="88.4092" y="25.8419" width="72.7241" height="72.7239" filterUnits="userSpaceOnUse" color-interpolation-filters="sRGB">
<feFlood flood-opacity="0" result="BackgroundImageFix"/>
<feColorMatrix in="SourceAlpha" type="matrix" values="0 0 0 0 0 0 0 0 0 0 0 0 0 0 0 0 0 0 127 0" result="hardAlpha"/>
<feOffset dy="4"/>
<feGaussianBlur stdDeviation="15"/>
<feComposite in2="hardAlpha" operator="out"/>
<feColorMatrix type="matrix" values="0 0 0 0 0 0 0 0 0 1 0 0 0 0 0.980392 0 0 0 0.16 0"/>
<feBlend mode="normal" in2="BackgroundImageFix" result="effect1_dropShadow_1_275"/>
<feBlend mode="normal" in="SourceGraphic" in2="effect1_dropShadow_1_275" result="shape"/>
</filter>
<filter id="filter2_d_1_275" x="80.6157" y="18.0486" width="88.3105" height="88.3104" filterUnits="userSpaceOnUse" color-interpolation-filters="sRGB">
<feFlood flood-opacity="0" result="BackgroundImageFix"/>
<feColorMatrix in="SourceAlpha" type="matrix" values="0 0 0 0 0 0 0 0 0 0 0 0 0 0 0 0 0 0 127 0" result="hardAlpha"/>
<feOffset dy="4"/>
<feGaussianBlur stdDeviation="15"/>
<feComposite in2="hardAlpha" operator="out"/>
<feColorMatrix type="matrix" values="0 0 0 0 0 0 0 0 0 1 0 0 0 0 0.980392 0 0 0 0.16 0"/>
<feBlend mode="normal" in2="BackgroundImageFix" result="effect1_dropShadow_1_275"/>
<feBlend mode="normal" in="SourceGraphic" in2="effect1_dropShadow_1_275" result="shape"/>
</filter>
</defs>
</svg>
