<svg width="197" height="122" viewBox="0 0 197 122" fill="none" xmlns="http://www.w3.org/2000/svg">
<g filter="url(#filter0_d_1_199)">
<path d="M127.273 41.3858L127.262 38.5756C127.262 38.5652 127.262 38.5549 127.262 38.5445L127.257 36.6953H127.226L127.221 35.5057L127.075 35.2876L121.871 32.2489C121.871 32.2489 121.871 32.2489 121.865 32.2489C121.658 32.119 121.455 31.9943 121.247 31.8697C121.253 31.8801 117.232 29.8231 117.232 29.8231L116.089 29.3608C110.734 27.1947 105.093 26.0675 99.327 26.0052C99.2179 26.0052 99.1088 26.0052 98.9998 26.0052C98.9063 26.0052 98.8128 26 98.7193 26C98.5167 26 98.3193 26 98.1271 26.0052C98.1115 26.0052 98.0959 26.0052 98.0804 26.0052C98.0648 26.0052 98.0544 26.0052 98.0388 26.0052C96.0286 26.026 94.6417 26.1351 93.956 26.2078C93.9404 26.2078 91.1666 26.5922 89.8005 26.8571L89.7901 26.8259L89.0785 27.0025C84.284 28.005 79.661 29.7763 75.4068 32.2489L72.981 33.6617C72.9706 33.6669 72.9603 33.6721 72.9551 33.6773L71.35 34.6071L70.3579 35.2876L70.1865 35.5109L70.1553 41.5364C70.1449 43.2662 70.2436 44.9907 70.4306 46.7049L70.4098 46.7256L70.5137 47.4684C71.2773 53.5147 73.2408 59.3896 76.3158 64.7138C77.5054 66.776 78.43 68.1162 78.8715 68.7343C78.8871 68.7551 78.913 68.7499 78.9546 68.7343C79.7649 69.8563 80.622 70.9419 81.5258 71.986L81.4791 72.0327L82.9335 73.5287C82.9647 73.5599 82.9958 73.5962 83.027 73.6274L83.053 73.6586C83.0737 73.6793 83.162 73.7677 83.2971 73.9079C86.2839 76.983 89.6966 79.6477 93.4418 81.793L95.8779 83.1903C95.8883 83.1955 95.8987 83.2007 95.9091 83.2059L97.5142 84.1253L98.5478 84.6291H98.8699L103.737 81.8501C104.064 81.6787 104.386 81.5073 104.703 81.3307C104.688 81.3255 108.485 78.8789 108.485 78.8789L109.456 78.1206C112.952 75.3883 116.001 72.2093 118.562 68.6304C118.629 68.5369 118.692 68.4434 118.759 68.3499C118.899 68.1525 119.04 67.9499 119.175 67.7473C119.85 66.7604 120.494 65.7527 121.097 64.7086C122.286 62.6465 122.987 61.1764 123.299 60.4804C123.31 60.4596 124.847 56.569 124.847 56.569L125.47 54.403C125.496 54.3146 125.725 53.5147 126.011 52.2421C126.852 48.6995 127.283 45.053 127.273 41.3858ZM117.123 61.7634C114.593 66.2618 111.227 70.2251 107.238 73.4716C105.971 73.082 104.76 72.6612 103.67 72.2353C105.997 70.5056 108.1 68.5213 109.95 66.3397C111.279 64.7865 112.49 63.1191 113.56 61.3582L113.57 61.3634C115.461 58.091 117.824 56.7976 119.663 56.3145C119.507 56.7248 119.346 57.1352 119.18 57.5404C118.577 58.9844 117.892 60.3973 117.123 61.7634ZM98.7037 78.9672L96.0078 77.4401C95.8572 77.3518 95.7065 77.2687 95.5507 77.1804C92.7977 75.5909 90.2524 73.6949 87.9617 71.5445C88.4188 70.677 88.8811 69.5498 89.172 68.2096C89.2135 68.2564 89.2603 68.298 89.307 68.3395C91.7016 70.7861 94.4443 72.9314 97.483 74.6767C97.483 74.6767 97.483 74.6767 97.4882 74.6767C97.4934 74.6819 97.5038 74.6871 97.509 74.6923L98.7141 75.3831L98.7504 75.3623C99.7789 75.8818 100.984 76.4012 102.314 76.9051C102.158 76.9986 102.007 77.0921 101.857 77.1804C101.716 77.2635 101.576 77.3414 101.436 77.4193L98.7037 78.9672ZM79.8688 61.005C79.8428 60.9583 79.8169 60.9063 79.7909 60.8596C79.6974 60.6882 79.6091 60.5168 79.5208 60.3401C77.63 56.5794 76.3366 52.5486 75.6717 48.393C76.6587 47.4788 77.6404 46.6269 78.5702 45.8789C79.1104 50.7617 80.6116 55.5197 82.9906 59.8675L82.9802 59.8726C84.8554 63.1243 84.8087 65.7994 84.3152 67.6383C82.8088 65.8046 81.4583 63.836 80.2844 61.7582C80.1389 61.5141 80.0039 61.2596 79.8688 61.005ZM75.1471 41.8793C75.1471 41.7182 75.1471 41.552 75.1471 41.3962L75.1783 38.1964L77.8326 36.6329C77.9832 36.5446 78.1339 36.4563 78.2845 36.368C81.0323 34.7837 83.936 33.5267 86.9436 32.6177C87.4682 33.454 88.211 34.4305 89.2343 35.3655C85.8735 36.2122 82.6114 37.5264 79.5364 39.308C79.5364 39.308 79.5364 39.308 79.5312 39.308C79.526 39.3132 79.5156 39.3184 79.5104 39.3184L78.3105 40.0145V40.056C77.3339 40.6949 76.2691 41.4949 75.1523 42.4039C75.1575 42.2325 75.1471 42.0559 75.1471 41.8793ZM98.7141 30.8516C98.8907 30.8516 99.0673 30.8516 99.2387 30.8568C99.3686 30.8568 99.4984 30.862 99.6231 30.862C104.251 30.9814 108.828 31.8904 113.149 33.5319C113.451 34.8461 113.7 36.1239 113.877 37.303C110.739 35.9473 107.461 35.0382 104.127 34.5708C102.62 34.3526 101.098 34.2227 99.5659 34.1864V34.1708C95.7637 34.1708 93.4625 32.7527 92.1224 31.397C94.2988 31.0438 96.5013 30.862 98.7141 30.8516ZM122.276 41.3546C122.276 41.526 122.276 41.7027 122.276 41.8793C122.276 45.0375 121.912 48.1697 121.206 51.2136C120.219 51.25 119.003 51.411 117.684 51.8317C118.172 50.0864 118.531 48.3047 118.759 46.5023C118.785 46.2997 118.806 46.0971 118.832 45.8945C118.848 45.7387 118.868 45.5881 118.884 45.4322C119.019 44.1129 119.092 42.7831 119.092 41.4377V41.4325C119.092 41.4222 119.092 41.417 119.092 41.4066L119.086 40.0197C119.086 40.0197 118.827 37.5004 118.593 36.0719C118.764 36.1706 118.941 36.2641 119.118 36.3628C119.258 36.4459 119.398 36.529 119.538 36.607L122.255 38.2068L122.276 41.3546ZM98.7037 69.5342C93.6339 66.376 89.5979 61.9348 86.9072 56.7716C84.7515 52.5226 83.5049 47.8009 83.349 42.9129C88.1798 40.3365 93.5145 39.0483 98.8491 39.0483C104.101 39.0951 109.337 40.3885 114.084 42.9233C113.949 47.1048 113.019 51.1616 111.399 54.9068C108.755 60.8648 104.371 66.002 98.7037 69.5342Z" fill="#00FFFB"/>
</g>
<g filter="url(#filter1_d_1_199)">
<path d="M103.747 51.4785C103.747 54.2575 101.498 56.5119 98.714 56.5119C95.935 56.5119 93.6807 54.2575 93.6807 51.4785C93.6807 48.6995 95.935 46.4451 98.714 46.4451C99.0257 46.4451 99.3374 46.4711 99.6334 46.5334C99.2854 46.9802 99.0828 47.5463 99.0828 48.1541C99.0828 49.6241 100.278 50.824 101.753 50.824C102.449 50.824 103.083 50.5591 103.56 50.1176C103.68 50.5487 103.747 51.0058 103.747 51.4785Z" fill="#00FFFB"/>
</g>
<g filter="url(#filter2_d_1_199)">
<path d="M98.714 62.6776C92.5379 62.6776 87.5149 57.6547 87.5149 51.4785C87.5149 45.3024 92.5379 40.2794 98.714 40.2794C104.89 40.2794 109.913 45.3024 109.913 51.4785C109.913 57.6547 104.89 62.6776 98.714 62.6776ZM98.714 44.6531C94.9481 44.6531 91.8834 47.7178 91.8834 51.4837C91.8834 55.2497 94.9481 58.3092 98.714 58.3092C102.48 58.3092 105.545 55.2445 105.545 51.4837C105.545 47.7126 102.48 44.6531 98.714 44.6531Z" fill="#00FFFB"/>
</g>
<path d="M3.75312 121.665C3.06505 121.665 2.4291 121.497 1.84528 121.162C1.28231 120.826 0.834026 120.374 0.500415 119.807C0.166805 119.219 0 118.579 0 117.886V117.004H2.53335V117.886C2.53335 118.222 2.64803 118.516 2.87739 118.768C3.1276 118.999 3.41951 119.114 3.75312 119.114H18.7656C19.0992 119.114 19.3807 118.999 19.61 118.768C19.8602 118.516 19.9853 118.222 19.9853 117.886V112.815C19.9853 112.479 19.8602 112.196 19.61 111.965C19.3807 111.734 19.0992 111.619 18.7656 111.619H3.75312C3.06505 111.619 2.4291 111.451 1.84528 111.115C1.28231 110.758 0.834026 110.296 0.500415 109.729C0.166805 109.162 0 108.532 0 107.839V102.769C0 102.076 0.166805 101.446 0.500415 100.879C0.834026 100.291 1.28231 99.8291 1.84528 99.4931C2.4291 99.1572 3.06505 98.9892 3.75312 98.9892H18.7656C19.4537 98.9892 20.0792 99.1572 20.6421 99.4931C21.226 99.8291 21.6847 100.291 22.0183 100.879C22.3519 101.446 22.5187 102.076 22.5187 102.769V103.65H19.9853V102.769C19.9853 102.433 19.8602 102.149 19.61 101.918C19.3807 101.666 19.0992 101.54 18.7656 101.54H3.75312C3.41951 101.54 3.1276 101.666 2.87739 101.918C2.64803 102.149 2.53335 102.433 2.53335 102.769V107.839C2.53335 108.175 2.64803 108.459 2.87739 108.69C3.1276 108.921 3.41951 109.036 3.75312 109.036H18.7656C19.4537 109.036 20.0792 109.215 20.6421 109.571C21.226 109.907 21.6847 110.359 22.0183 110.926C22.3519 111.493 22.5187 112.123 22.5187 112.815V117.886C22.5187 118.579 22.3519 119.219 22.0183 119.807C21.6847 120.374 21.226 120.826 20.6421 121.162C20.0792 121.497 19.4537 121.665 18.7656 121.665H3.75312Z" fill="white"/>
<path d="M25.9361 121.665V98.9892H46.4844V101.54H28.4694V109.036H42.9502V111.619H28.4694V119.114H46.4844V121.665H25.9361Z" fill="white"/>
<path d="M53.5723 121.665C52.8842 121.665 52.2483 121.497 51.6645 121.162C51.1015 120.826 50.6532 120.374 50.3196 119.807C49.986 119.219 49.8192 118.579 49.8192 117.886V102.769C49.8192 102.076 49.986 101.446 50.3196 100.879C50.6532 100.291 51.1015 99.8291 51.6645 99.4931C52.2483 99.1572 52.8842 98.9892 53.5723 98.9892H72.2753V101.54H53.5723C53.2387 101.54 52.9468 101.666 52.6966 101.918C52.4672 102.149 52.3526 102.433 52.3526 102.769V117.886C52.3526 118.222 52.4672 118.516 52.6966 118.768C52.9468 118.999 53.2387 119.114 53.5723 119.114H72.2753V121.665H53.5723Z" fill="white"/>
<path d="M79.2269 121.665C78.5388 121.665 77.9029 121.497 77.3191 121.162C76.7561 120.826 76.3078 120.374 75.9742 119.807C75.6406 119.219 75.4738 118.579 75.4738 117.886V98.9892H78.0072V117.886C78.0072 118.222 78.1218 118.516 78.3512 118.768C78.6014 118.999 78.8933 119.114 79.2269 119.114H94.2394C94.573 119.114 94.8545 118.999 95.0838 118.768C95.334 118.516 95.4591 118.222 95.4591 117.886V98.9892H97.9925V117.886C97.9925 118.579 97.8257 119.219 97.4921 119.807C97.1585 120.374 96.6998 120.826 96.1159 121.162C95.553 121.497 94.9275 121.665 94.2394 121.665H79.2269Z" fill="white"/>
<path d="M120.453 121.665L113.103 112.847H116.418L123.799 121.634V121.665H120.453ZM101.437 121.665V99.0207H120.202C120.89 99.0207 121.516 99.1992 122.079 99.5561C122.663 99.892 123.121 100.343 123.455 100.91C123.789 101.477 123.955 102.107 123.955 102.8V109.445C123.955 110.138 123.789 110.768 123.455 111.335C123.121 111.902 122.663 112.364 122.079 112.721C121.516 113.057 120.89 113.225 120.202 113.225H103.97V121.665H101.437ZM105.19 110.642H120.202C120.536 110.642 120.817 110.527 121.047 110.296C121.297 110.065 121.422 109.781 121.422 109.445V102.8C121.422 102.464 121.297 102.181 121.047 101.95C120.817 101.698 120.536 101.572 120.202 101.572H105.19C104.856 101.572 104.564 101.698 104.314 101.95C104.085 102.181 103.97 102.464 103.97 102.8V109.445C103.97 109.781 104.085 110.065 104.314 110.296C104.564 110.527 104.856 110.642 105.19 110.642Z" fill="white"/>
<path d="M127.308 121.665V98.9892H147.856V101.54H129.841V109.036H144.322V111.619H129.841V119.114H147.856V121.665H127.308Z" fill="white"/>
<path d="M160.793 121.665V113.13L150.441 98.9892H153.349L162.075 110.075L170.707 98.9892H173.679L163.326 113.13V121.665H160.793Z" fill="white"/>
<path d="M176.452 121.665V98.9892H197V101.54H178.985V109.036H193.466V111.619H178.985V119.114H197V121.665H176.452Z" fill="white"/>
<defs>
<filter id="filter0_d_1_199" x="40.1545" y="0" width="117.118" height="118.629" filterUnits="userSpaceOnUse" color-interpolation-filters="sRGB">
<feFlood flood-opacity="0" result="BackgroundImageFix"/>
<feColorMatrix in="SourceAlpha" type="matrix" values="0 0 0 0 0 0 0 0 0 0 0 0 0 0 0 0 0 0 127 0" result="hardAlpha"/>
<feOffset dy="4"/>
<feGaussianBlur stdDeviation="15"/>
<feComposite in2="hardAlpha" operator="out"/>
<feColorMatrix type="matrix" values="0 0 0 0 0.00392157 0 0 0 0 0.729412 0 0 0 0 0.796078 0 0 0 0.16 0"/>
<feBlend mode="normal" in2="BackgroundImageFix" result="effect1_dropShadow_1_199"/>
<feBlend mode="normal" in="SourceGraphic" in2="effect1_dropShadow_1_199" result="shape"/>
</filter>
<filter id="filter1_d_1_199" x="63.6807" y="20.4451" width="70.0667" height="70.0667" filterUnits="userSpaceOnUse" color-interpolation-filters="sRGB">
<feFlood flood-opacity="0" result="BackgroundImageFix"/>
<feColorMatrix in="SourceAlpha" type="matrix" values="0 0 0 0 0 0 0 0 0 0 0 0 0 0 0 0 0 0 127 0" result="hardAlpha"/>
<feOffset dy="4"/>
<feGaussianBlur stdDeviation="15"/>
<feComposite in2="hardAlpha" operator="out"/>
<feColorMatrix type="matrix" values="0 0 0 0 0 0 0 0 0 1 0 0 0 0 0.980392 0 0 0 0.16 0"/>
<feBlend mode="normal" in2="BackgroundImageFix" result="effect1_dropShadow_1_199"/>
<feBlend mode="normal" in="SourceGraphic" in2="effect1_dropShadow_1_199" result="shape"/>
</filter>
<filter id="filter2_d_1_199" x="57.5149" y="14.2794" width="82.3982" height="82.3983" filterUnits="userSpaceOnUse" color-interpolation-filters="sRGB">
<feFlood flood-opacity="0" result="BackgroundImageFix"/>
<feColorMatrix in="SourceAlpha" type="matrix" values="0 0 0 0 0 0 0 0 0 0 0 0 0 0 0 0 0 0 127 0" result="hardAlpha"/>
<feOffset dy="4"/>
<feGaussianBlur stdDeviation="15"/>
<feComposite in2="hardAlpha" operator="out"/>
<feColorMatrix type="matrix" values="0 0 0 0 0 0 0 0 0 1 0 0 0 0 0.980392 0 0 0 0.16 0"/>
<feBlend mode="normal" in2="BackgroundImageFix" result="effect1_dropShadow_1_199"/>
<feBlend mode="normal" in="SourceGraphic" in2="effect1_dropShadow_1_199" result="shape"/>
</filter>
</defs>
</svg>
