<svg width="18" height="15" viewBox="0 0 18 15" fill="none" xmlns="http://www.w3.org/2000/svg">
<path opacity="0.5" d="M4.99657 0.95591C2.76276 0.95591 0.95 2.83676 0.95 5.14265V9.86799C0.95 10.9858 1.37087 12.0373 2.13551 12.8269C2.89905 13.6153 3.91537 14.05 4.99771 14.05H13.0023C15.2361 14.05 17.05 12.1692 17.05 9.86326V5.13556C17.05 4.01656 16.6291 2.96509 15.8633 2.17433C15.0987 1.38471 14.0824 0.95 13 0.95L12.9966 0.95L12.9965 0.95L4.99657 0.95591ZM4.99657 0.95591V1.00591M4.99657 0.95591L4.99653 0.95591L4.99657 1.00591M4.99657 1.00591L12.9966 1H13C14.0686 1 15.072 1.42904 15.8274 2.20911C16.584 2.99036 17 4.02927 17 5.13556V9.86326C17 12.1432 15.2069 14 13.0023 14H4.99771C3.92914 14 2.92571 13.571 2.17143 12.7921C1.416 12.012 1 10.9731 1 9.86799V5.14265C1 2.86272 2.792 1.00591 4.99657 1.00591ZM7.51252 7.40674L3.18405 2.93031C3.67323 2.5 4.30574 2.23902 4.99657 2.23902L4.99662 2.23902L12.9966 2.23193H12.9966H13C13.6788 2.23193 14.3214 2.48041 14.8299 2.93476L10.5069 7.40674C9.70714 8.23385 8.31229 8.23385 7.51252 7.40674ZM2.19286 5.14265C2.19286 4.7247 2.27846 4.3275 2.43272 3.96839L6.63263 8.31187L6.63266 8.3119C7.26814 8.96791 8.11186 9.33057 9.01029 9.33057C9.90867 9.33057 10.7524 8.96912 11.3868 8.31184L15.576 3.97946C15.7276 4.33981 15.8071 4.73206 15.8071 5.13792V9.86444C15.8071 11.4671 14.5468 12.7681 13.0022 12.7693H4.99771C4.24918 12.7693 3.54436 12.4688 3.01419 11.9217C2.48403 11.3745 2.19286 10.6449 2.19286 9.86799V5.14265Z" fill="#00FFFB" stroke="#00FFFB" stroke-width="0.1"/>
</svg>
