<svg width="14" height="17" viewBox="0 0 14 17" fill="none" xmlns="http://www.w3.org/2000/svg">
<path d="M7.09706 8.51149C7.27605 8.51149 7.42116 8.36639 7.42116 8.18739C7.42116 8.00839 7.27605 7.86328 7.09706 7.86328C6.91806 7.86328 6.77295 8.00839 6.77295 8.18739C6.77295 8.36639 6.91806 8.51149 7.09706 8.51149Z" fill="#00FFFB" fill-opacity="0.5"/>
<path d="M7.00005 5.59418C7.53614 5.59418 7.97228 5.15798 7.97228 4.6218C7.97228 4.08562 7.53614 3.64941 7.00005 3.64941C6.46397 3.64941 6.02783 4.08562 6.02783 4.6218C6.02783 5.15798 6.46397 5.59418 7.00005 5.59418ZM7.00005 4.29766C7.17875 4.29766 7.32413 4.44307 7.32413 4.6218C7.32413 4.80053 7.17875 4.94594 7.00005 4.94594C6.82136 4.94594 6.67598 4.80053 6.67598 4.6218C6.67598 4.44307 6.82136 4.29766 7.00005 4.29766Z" fill="#00FFFB" fill-opacity="0.5"/>
<path d="M13.0278 6.57698H12.7037V4.62181C12.7037 4.53658 12.669 4.45294 12.6087 4.39263C12.5638 4.34771 12.5059 4.31702 12.444 4.30428C12.444 4.30428 13.3129 1.4409 13.3195 1.41367C13.3911 1.11922 13.3437 0.814557 13.1861 0.555752C13.0285 0.296914 12.7796 0.115011 12.4851 0.0434555C11.8773 -0.104031 11.2628 0.27546 11.1152 0.883229C11.1084 0.910969 10.0766 4.30811 10.0766 4.30811H9.24499C9.08717 3.20606 8.14077 2.3634 7 2.3634C5.85923 2.3634 4.91283 3.20606 4.75501 4.30808H3.92768C3.92768 4.30808 2.89165 0.897391 2.88478 0.869132C2.73713 0.261331 2.12259 -0.115503 1.51482 0.0319833C1.2204 0.103506 0.971444 0.284113 0.813847 0.542951C0.656282 0.801757 0.60887 1.1058 0.680393 1.40022C0.687037 1.42758 1.56012 4.3039 1.56012 4.3039C1.4967 4.31611 1.4372 4.34687 1.39125 4.39279C1.33097 4.4531 1.2963 4.53655 1.2963 4.62181V6.57698H0.972222C0.436139 6.57698 0 7.00807 0 7.54422C0 8.0804 0.436139 8.51404 0.972222 8.51404L1.97685 8.51138V11.5686C1.97685 13.5311 3.13318 15.3265 4.92268 16.1425C5.57761 16.4412 6.2765 16.5926 7 16.5926C7.73503 16.5926 8.4443 16.4363 9.1082 16.1281C9.10836 16.128 9.10849 16.1279 9.10865 16.1279C10.8792 15.3056 12.0231 13.5161 12.0231 11.5686V8.51135L13.0278 8.51145C13.5639 8.51145 14 8.0804 14 7.54422C14 7.00803 13.5639 6.57698 13.0278 6.57698ZM1.2963 7.87351H0.972222C0.793528 7.87351 0.648148 7.7281 0.648148 7.54937C0.648148 7.37064 0.793528 7.22523 0.972222 7.22523H1.2963V7.87351ZM11.7451 1.03107C11.7965 0.819581 11.999 0.659585 12.2174 0.659585C12.2553 0.659585 12.2937 0.664025 12.3322 0.673391C12.589 0.735872 12.7522 1.00382 12.6898 1.26061C12.6272 1.51812 12.3604 1.68103 12.1027 1.61826C11.8422 1.555 11.6818 1.29159 11.7451 1.03107ZM7 3.00125C7.89347 3.00125 8.62037 3.72824 8.62037 4.62191C8.62037 5.51558 7.89347 6.24257 7 6.24257C6.10653 6.24257 5.37963 5.51558 5.37963 4.62191C5.37963 3.72824 6.10653 3.00125 7 3.00125ZM1.31026 1.24655C1.27899 1.11766 1.30401 0.986511 1.36899 0.879794C1.43403 0.772979 1.53912 0.690599 1.66785 0.659358C1.92066 0.597979 2.19275 0.760794 2.25494 1.01701C2.31823 1.2775 2.15781 1.54094 1.89736 1.6042C1.6404 1.66661 1.37236 1.50244 1.31026 1.24655ZM1.7805 2.26667C2.05888 2.26667 2.33288 2.16753 2.53977 1.98129L3.24988 4.30811H2.23608L1.61081 2.25853C1.66688 2.26712 1.72352 2.26667 1.7805 2.26667ZM4.88221 15.2388L4.84604 15.3762C3.48513 14.6033 2.625 13.1481 2.625 11.5686V8.52175H3.27315V11.5686C3.27315 12.8562 3.93546 14.0428 5.01764 14.7239L4.88221 15.2388ZM7 15.9443C6.46142 15.9443 5.93859 15.848 5.44221 15.6577L5.60839 15.026C6.04887 15.2035 6.52303 15.296 7 15.296C7.48796 15.296 7.97219 15.1993 8.42087 15.0141L8.58715 15.6461C8.08199 15.8441 7.54931 15.9443 7 15.9443ZM11.375 11.5686C11.375 13.1341 10.5258 14.5827 9.18206 15.3598L9.0101 14.7062C10.0751 14.0223 10.7269 12.8422 10.7269 11.5686V8.52175H11.375V11.5686ZM12.0556 7.87351H8.55556C8.37699 7.87351 8.23148 8.01905 8.23148 8.19765C8.23148 8.37657 8.37699 8.52178 8.55556 8.52178H10.0787V11.5686C10.0787 12.6911 9.46552 13.7257 8.47843 14.2688C8.02767 14.5168 7.51641 14.6479 7 14.6479C6.49373 14.6479 5.99135 14.5216 5.54724 14.2827C4.54433 13.7433 3.9213 12.7033 3.9213 11.5686V8.52175H5.63889C5.81745 8.52175 5.96296 8.37657 5.96296 8.19761C5.96296 8.01902 5.81745 7.87347 5.63889 7.87347H1.94444V4.95632H4.75498C4.9127 6.05837 5.85916 6.90119 7 6.90119C8.14084 6.90119 9.08726 6.05834 9.24502 4.95632H12.0556V7.87351ZM11.7682 4.30808H10.7544L11.4602 1.99535C11.5952 2.11685 11.7611 2.20503 11.9496 2.25085C12.0932 2.28572 12.2431 2.29629 12.3892 2.2739L11.7682 4.30808ZM13.0278 7.87351H12.7037V7.22523H13.0278C13.2065 7.22523 13.3519 7.37064 13.3519 7.54937C13.3519 7.7281 13.2065 7.87351 13.0278 7.87351Z" fill="#00FFFB" fill-opacity="0.5"/>
</svg>
