<svg width="14" height="21" viewBox="0 0 14 21" fill="none" xmlns="http://www.w3.org/2000/svg">
<g opacity="0.5">
<path d="M4.52225 2.84452L4.52227 2.84457C4.80584 3.69446 5.5985 4.26588 6.49496 4.26588H8.17092C9.06737 4.26588 9.86003 3.69446 10.1436 2.84457L10.1436 2.84452L10.4489 1.92805C11.7577 2.09926 12.7742 3.20873 12.7742 4.5625L12.775 16.4375C12.775 17.9102 11.5769 19.1083 10.1042 19.1083H4.5625C3.08981 19.1083 1.89167 17.9102 1.89167 16.4375V4.5625C1.89167 3.20949 2.90819 2.09929 4.217 1.92805L4.52225 2.84452ZM10.1042 0.9H4.5625C2.54315 0.9 0.9 2.54315 0.9 4.5625V16.4375C0.9 18.4569 2.54315 20.1 4.5625 20.1H10.1042C12.1235 20.1 13.7667 18.4569 13.7667 16.4375V4.5625C13.7667 2.54315 12.1235 0.9 10.1042 0.9ZM5.46406 2.53108L5.2507 1.89167H9.41675L9.2034 2.53108C9.2034 2.53109 9.20339 2.53109 9.20339 2.5311C9.05471 2.9764 8.64005 3.275 8.17171 3.275H6.49575C6.02741 3.275 5.61275 2.9764 5.46407 2.5311C5.46407 2.53109 5.46406 2.53109 5.46406 2.53108Z" fill="#00FFFB" stroke="#00FFFB" stroke-width="0.2"/>
<path d="M8.52083 16.7333H6.14583C5.8721 16.7333 5.65 16.9554 5.65 17.2292C5.65 17.5029 5.8721 17.725 6.14583 17.725H8.52083C8.79456 17.725 9.01667 17.5029 9.01667 17.2292C9.01667 16.9554 8.79456 16.7333 8.52083 16.7333Z" fill="#00FFFB" stroke="#00FFFB" stroke-width="0.2"/>
</g>
</svg>
