<svg width="15" height="14" viewBox="0 0 15 14" fill="none" xmlns="http://www.w3.org/2000/svg">
<path d="M12.3278 2.19531H2.16488C1.97715 2.19531 1.8252 2.34726 1.8252 2.535V8.1595C1.8252 8.34701 1.97715 8.49918 2.16488 8.49918H3.35468V10.0835C3.35468 10.271 3.50664 10.4232 3.69437 10.4232H4.61265V11.4649C4.61265 11.6524 4.7646 11.8045 4.95233 11.8045H9.54035C9.72785 11.8045 9.88003 11.6524 9.88003 11.4649V10.4232H10.7985C10.986 10.4232 11.1382 10.271 11.1382 10.0835V8.49918H12.328C12.5155 8.49918 12.6677 8.34701 12.6677 8.1595V2.535C12.6675 2.34749 12.5155 2.19531 12.3278 2.19531ZM11.9881 7.81982H10.7983C10.6108 7.81982 10.4586 7.97199 10.4586 8.1595V9.74379H9.54035C9.35284 9.74379 9.20066 9.89597 9.20066 10.0835V11.1252H5.29202V10.0835C5.29202 9.89597 5.14007 9.74379 4.95233 9.74379H4.03405V8.1595C4.03405 7.97199 3.8821 7.81982 3.69437 7.81982H2.50457V2.87468H11.9883L11.9881 7.81982Z" fill="#00FFFB" fill-opacity="0.5"/>
<path d="M13.3643 0H1.12911C0.506583 0 0 0.506583 0 1.12911V12.8709C0 13.4934 0.506583 14 1.12911 14H13.3643C13.9869 14 14.4932 13.4934 14.4932 12.8709V1.12911C14.4932 0.506583 13.9869 0 13.3643 0ZM13.8139 12.8709C13.8139 13.1191 13.6121 13.3206 13.3643 13.3206H1.12911C0.881143 13.3206 0.67937 13.1191 0.67937 12.8709V1.12911C0.67937 0.881143 0.881143 0.67937 1.12911 0.67937H13.3643C13.6121 0.67937 13.8139 0.881143 13.8139 1.12911V12.8709Z" fill="#00FFFB" fill-opacity="0.5"/>
<path d="M10.5765 6.254C10.764 6.254 10.9162 6.10205 10.9162 5.91432V4.18759C10.9162 3.99985 10.764 3.8479 10.5765 3.8479C10.389 3.8479 10.2368 3.99985 10.2368 4.18759V5.91432C10.2368 6.10205 10.389 6.254 10.5765 6.254Z" fill="#00FFFB" fill-opacity="0.5"/>
<path d="M8.91146 6.254C9.09897 6.254 9.25115 6.10205 9.25115 5.91432V4.18759C9.25115 3.99985 9.09897 3.8479 8.91146 3.8479C8.72396 3.8479 8.57178 3.99985 8.57178 4.18759V5.91432C8.57178 6.10205 8.72373 6.254 8.91146 6.254Z" fill="#00FFFB" fill-opacity="0.5"/>
<path d="M7.24642 6.254C7.43416 6.254 7.58611 6.10205 7.58611 5.91432V4.18759C7.58611 3.99985 7.43416 3.8479 7.24642 3.8479C7.05869 3.8479 6.90674 3.99985 6.90674 4.18759V5.91432C6.90674 6.10205 7.05869 6.254 7.24642 6.254Z" fill="#00FFFB" fill-opacity="0.5"/>
<path d="M5.58138 6.254C5.76912 6.254 5.92107 6.10205 5.92107 5.91432V4.18759C5.92107 3.99985 5.76912 3.8479 5.58138 3.8479C5.39365 3.8479 5.2417 3.99985 5.2417 4.18759V5.91432C5.2417 6.10205 5.39388 6.254 5.58138 6.254Z" fill="#00FFFB" fill-opacity="0.5"/>
<path d="M3.91635 6.254C4.10408 6.254 4.25603 6.10205 4.25603 5.91432V4.18759C4.25603 3.99985 4.10408 3.8479 3.91635 3.8479C3.72861 3.8479 3.57666 3.99985 3.57666 4.18759V5.91432C3.57666 6.10205 3.72884 6.254 3.91635 6.254Z" fill="#00FFFB" fill-opacity="0.5"/>
</svg>
